<svg width="23" height="23" viewBox="0 0 23 23" fill="none" xmlns="http://www.w3.org/2000/svg">
<g clip-path="url(#clip0_38172_86)">
<path d="M11.7997 -0.0234375C5.611 -0.0234375 0.575195 5.01096 0.575195 11.2004C0.575195 17.3898 5.611 22.4242 11.7997 22.4242C17.9884 22.4242 23.0242 17.3898 23.0242 11.2004C23.0242 5.01096 17.9884 -0.0234375 11.7997 -0.0234375ZM11.7997 21.6766C6.0233 21.6766 1.3242 16.9768 1.3242 11.2004C1.3242 5.42396 6.0233 0.724163 11.7997 0.724163C17.5761 0.724163 22.2752 5.42396 22.2752 11.2004C22.2752 16.9768 17.5761 21.6766 11.7997 21.6766Z" fill="white"/>
<path d="M17.9559 7.73295C18.0335 7.58923 18.0975 7.43853 18.147 7.28285C18.1699 7.21064 18.1703 7.13318 18.1483 7.06069C18.1263 6.98821 18.0828 6.92412 18.0235 6.87688C17.9643 6.82963 17.8922 6.80146 17.8166 6.79608C17.741 6.79071 17.6656 6.80837 17.6003 6.84675C17.2416 7.05984 16.8533 7.2186 16.4481 7.31785C15.9562 6.87389 15.3173 6.62778 14.6547 6.62695C14.2947 6.62723 13.9384 6.7002 13.6073 6.84148C13.2762 6.98276 12.977 7.18944 12.7277 7.44914C12.4784 7.70884 12.2841 8.01621 12.1565 8.35282C12.0288 8.68943 11.9705 9.04834 11.9849 9.40805C10.4106 9.20987 8.97302 8.41325 7.97038 7.18345C7.93197 7.13686 7.88287 7.10023 7.82727 7.07668C7.77167 7.05312 7.71121 7.04333 7.65101 7.04814C7.59082 7.05295 7.53267 7.07222 7.48152 7.1043C7.43037 7.13639 7.38771 7.18035 7.35718 7.23245C7.1276 7.6265 7.00281 8.0728 6.99472 8.52878C6.98664 8.98476 7.09552 9.43521 7.31098 9.83715C7.25814 9.84607 7.20737 9.86457 7.16118 9.89175C7.10459 9.92784 7.05799 9.97761 7.02569 10.0365C6.99339 10.0953 6.97644 10.1613 6.97638 10.2285C6.97638 11.023 7.32988 11.7524 7.89968 12.248L7.87518 12.2725C7.83217 12.3211 7.80257 12.3801 7.78931 12.4437C7.77606 12.5073 7.7796 12.5733 7.79958 12.6351C7.9184 13.0057 8.11679 13.3459 8.38087 13.6319C8.64494 13.9179 8.96833 14.1427 9.32838 14.2906C8.5889 14.6513 7.76133 14.792 6.94418 14.6959C6.86019 14.6873 6.77572 14.7068 6.70403 14.7514C6.63233 14.796 6.57745 14.8631 6.54798 14.9423C6.51969 15.022 6.51916 15.1089 6.54648 15.1889C6.57379 15.269 6.62736 15.3375 6.69848 15.3833C7.80939 16.0962 9.10176 16.475 10.4218 16.4746C14.7478 16.4746 17.3336 12.9606 17.3336 9.56345L17.3329 9.44865C17.7521 9.12134 18.1163 8.72905 18.4116 8.28665C18.4563 8.21977 18.4783 8.14027 18.4743 8.05992C18.4703 7.97957 18.4405 7.90264 18.3894 7.84052C18.3383 7.77841 18.2685 7.7344 18.1904 7.71503C18.1124 7.69565 18.0301 7.70194 17.9559 7.73295ZM16.7344 8.96145C16.6836 8.99798 16.6428 9.04665 16.6156 9.10302C16.5885 9.15939 16.5759 9.22166 16.579 9.28415C16.5832 9.37655 16.5853 9.47035 16.5853 9.56275C16.5853 12.5924 14.2802 15.7263 10.4225 15.7263C9.73446 15.7266 9.05128 15.6111 8.40158 15.3847C9.1797 15.2355 9.91067 14.9019 10.5331 14.4117C10.5937 14.3639 10.638 14.2986 10.6601 14.2246C10.6821 14.1507 10.6808 14.0717 10.6563 13.9986C10.6318 13.9254 10.5853 13.8616 10.5231 13.8159C10.461 13.7702 10.3862 13.7448 10.3091 13.7432C10.0073 13.7374 9.71102 13.6608 9.44425 13.5195C9.17747 13.3782 8.94764 13.1762 8.77328 12.9298C8.95038 12.9179 9.12398 12.8885 9.29268 12.843C9.37433 12.8211 9.44616 12.7722 9.49646 12.7043C9.54675 12.6364 9.57254 12.5534 9.56962 12.4689C9.56669 12.3845 9.53523 12.3035 9.48036 12.2392C9.42549 12.1749 9.35045 12.1311 9.26748 12.115C8.9266 12.0456 8.61098 11.8849 8.35439 11.65C8.0978 11.4151 7.9099 11.1149 7.81078 10.7815C7.99698 10.8284 8.18808 10.8557 8.37918 10.862C8.54368 10.8613 8.69628 10.7605 8.74738 10.6023C8.79848 10.4441 8.73828 10.2698 8.59898 10.1774C8.26961 9.95791 8.01601 9.64214 7.87281 9.27318C7.72961 8.90421 7.70379 8.50004 7.79888 8.11585C9.01481 9.36347 10.6567 10.1064 12.3965 10.1963C12.5197 10.197 12.6275 10.1529 12.7024 10.0626C12.7773 9.97225 12.806 9.85255 12.7794 9.73775C12.6836 9.32545 12.7265 8.89309 12.9012 8.50758C13.076 8.12207 13.3729 7.8049 13.7461 7.60516C14.1193 7.40542 14.5479 7.33425 14.9656 7.40265C15.3833 7.47105 15.7668 7.67522 16.0568 7.98355C16.1002 8.02992 16.1548 8.06447 16.2153 8.08394C16.2758 8.10341 16.3402 8.10717 16.4026 8.09485C16.5181 8.07175 16.6322 8.04515 16.7449 8.01435C16.6941 8.05239 16.6413 8.08767 16.5867 8.12005C16.5141 8.16452 16.4588 8.23238 16.43 8.31247C16.4011 8.39256 16.4004 8.48008 16.428 8.56062C16.4555 8.64117 16.5097 8.70992 16.5815 8.75555C16.6534 8.80118 16.7387 8.82097 16.8233 8.81165L16.9507 8.79555C16.8805 8.85334 16.8084 8.90868 16.7344 8.96145Z" fill="white"/>
</g>
<defs>
<clipPath id="clip0_38172_86">
<rect width="22.4" height="22.4" fill="white" transform="translate(0.599609)"/>
</clipPath>
</defs>
</svg>
